<svg width="216" height="216" viewBox="0 0 216 216" fill="none" xmlns="http://www.w3.org/2000/svg">
<g clip-path="url(#clip0_501_86)">
<path d="M38.1628 2.77698C39.2065 10.7097 43.5397 33.5686 59.7605 46.8217C79.6204 63.0478 115.369 57.647 143.584 43.9967C167.454 32.449 199.396 11.2572 211.284 3.19653C213.29 1.83706 216.001 3.28537 216 5.70437C215.973 71.0701 215.499 132.991 215.463 176.03C215.461 178.281 213.065 179.718 211.068 178.673L181.727 163.312C180.74 162.795 180.121 161.774 180.121 160.661V54.774C180.121 52.2376 177.158 50.8504 175.204 52.4717L109.936 106.609C108.844 107.515 107.264 107.532 106.152 106.65L40.9269 54.9041C38.9613 53.3444 36.0601 54.7414 36.0601 57.2472V85.3465C36.0601 87.5746 33.7082 89.0219 31.7131 88.0217L0.157592 72.1981C0.0852712 72.1618 5.91216e-05 72.1996 5.98021e-05 72.1187C8.71142e-05 68.8775 0.000243163 39.4467 0 3.35126C-1.10513e-05 1.71078 1.32295 0.373244 2.96674 0.355047L35.0218 0.000188815C36.6142 -0.0174391 37.9555 1.20134 38.1628 2.77698Z" fill="white"/>
<path fill-rule="evenodd" clip-rule="evenodd" d="M35.9402 110.426C35.9402 109.296 35.3022 108.262 34.2908 107.753L4.35062 92.6893C2.35532 91.6857 0 93.1327 0 95.3626V213.006C0 214.66 1.34315 216 3.00002 216H212.701C214.358 216 215.701 214.66 215.701 213.006V203.357C215.701 202.225 215.061 201.189 214.048 200.681L174.156 180.692C173.738 180.483 173.278 180.374 172.81 180.374H38.9401C37.2834 180.374 35.9402 179.034 35.9402 177.38V110.426Z" fill="#319791"/>
</g>
<defs>
<clipPath id="clip0_501_86">
<rect width="216" height="216" fill="white"/>
</clipPath>
</defs>
</svg>
