<svg width="105" height="101" viewBox="0 0 105 101" fill="none" xmlns="http://www.w3.org/2000/svg">
<path d="M52.2904 96.5238C52.6304 96.499 52.928 96.595 53.1832 96.8118C53.4312 97.0367 53.565 97.3194 53.5844 97.6597C53.6035 97.9925 53.5028 98.2885 53.2824 98.5476C53.0544 98.8073 52.7705 98.9495 52.4305 98.9743C52.098 98.9986 51.804 98.8986 51.5484 98.6742C51.2928 98.4498 51.1554 98.1712 51.1364 97.8384C51.1234 97.6115 51.1682 97.3994 51.2707 97.202C51.3661 97.0128 51.505 96.8546 51.6875 96.7273C51.8627 96.6082 52.0637 96.5403 52.2904 96.5238Z" fill="white"/>
<path d="M39.8504 99.8711L39.2212 99.6234L38.3981 89.3401L38.3334 89.3146L31.8567 96.7238L31.2276 96.4761L34.3268 86.7774L34.8819 86.996L32.2322 95.2882L32.2877 95.3101L38.3652 88.3675L38.9111 88.5824L39.6892 98.2242L39.7447 98.2461L42.3944 89.9539L42.9495 90.1724L39.8504 99.8711Z" fill="white"/>
<path d="M33.3891 86.3265L28.5436 95.2814L23.8454 92.1113L24.1199 91.6041L28.3029 94.4265L30.3116 90.7143L26.38 88.0614L26.6545 87.5542L30.5861 90.2071L32.5995 86.4861L28.3176 83.5969L28.5921 83.0896L33.3891 86.3265Z" fill="white"/>
<path d="M15.9794 85.3387L15.5462 84.8932L19.8554 79.7088C20.2982 79.1761 20.8054 78.816 21.377 78.6284C21.9464 78.4435 22.5294 78.4331 23.1257 78.5973C23.7177 78.7616 24.269 79.1064 24.7796 79.6315C25.2879 80.1543 25.6401 80.7387 25.836 81.3846C26.0299 82.0331 26.0663 82.6827 25.9453 83.3336C25.8219 83.9821 25.5388 84.5703 25.0958 85.0981L20.7865 90.2825L20.3533 89.8369L24.6403 84.6793C25.0153 84.2281 25.2566 83.7316 25.3641 83.1898C25.4693 82.6456 25.4426 82.1028 25.284 81.5615C25.1233 81.0227 24.828 80.5323 24.3983 80.0903C23.9685 79.6484 23.5059 79.3593 23.0104 79.2233C22.5128 79.0898 22.0254 79.1038 21.5482 79.2655C21.0687 79.4247 20.6414 79.7299 20.2664 80.1811L15.9794 85.3387Z" fill="white"/>
<path d="M11.9702 76.0969C11.5067 76.5402 11.2472 77.0808 11.1918 77.7189C11.1347 78.3541 11.3023 78.981 11.6946 79.5995C11.9591 80.0166 12.2651 80.3301 12.6127 80.54C12.9602 80.7499 13.3149 80.8482 13.6768 80.8347C14.0386 80.8213 14.3779 80.6862 14.6947 80.4296C14.8981 80.2648 15.0556 80.0736 15.1672 79.8562C15.2744 79.638 15.3427 79.3983 15.3721 79.1373C15.3989 78.8783 15.3916 78.6025 15.3502 78.3098C15.3088 78.0171 15.2416 77.7114 15.1486 77.3926L14.8071 76.2457C14.6931 75.8508 14.6093 75.4696 14.5555 75.1021C14.5 74.7319 14.4908 74.3792 14.5278 74.0442C14.5605 73.7084 14.6508 73.3959 14.7987 73.1066C14.9448 72.8145 15.1608 72.5527 15.4467 72.3211C15.8639 71.9832 16.3119 71.7982 16.7907 71.7663C17.2677 71.7316 17.7381 71.8525 18.2021 72.1292C18.6617 72.4051 19.0761 72.8342 19.4454 73.4164C19.7968 73.9705 20.0168 74.5232 20.1052 75.0745C20.1918 75.6229 20.1573 76.1402 20.0017 76.6264C19.8436 77.1146 19.5734 77.5369 19.1911 77.8931L18.8503 77.3557C19.1596 77.0628 19.371 76.7199 19.4845 76.3272C19.5936 75.9337 19.6069 75.5183 19.5245 75.0809C19.442 74.6435 19.265 74.2107 18.9934 73.7825C18.7005 73.3207 18.3701 72.9718 18.0022 72.736C17.6317 72.5022 17.2534 72.3914 16.8672 72.4033C16.4811 72.4153 16.1154 72.5611 15.7703 72.8407C15.4922 73.066 15.2992 73.3303 15.1915 73.6337C15.0837 73.9371 15.0464 74.2871 15.0797 74.6839C15.1112 75.0778 15.2008 75.5264 15.3485 76.0296L15.7067 77.2583C15.9447 78.0824 16.0142 78.8036 15.9152 79.4219C15.8143 80.0374 15.5218 80.5413 15.0376 80.9335C14.6307 81.2631 14.1956 81.4376 13.7323 81.457C13.2664 81.4785 12.8155 81.3608 12.3796 81.1038C11.9419 80.844 11.5615 80.4594 11.2385 79.95C10.9136 79.4378 10.7183 78.9117 10.6527 78.3717C10.5844 77.8338 10.6359 77.3218 10.8071 76.8357C10.9758 76.3517 11.2543 75.9333 11.6426 75.5805L11.9702 76.0969Z" fill="white"/>
<path d="M12.4327 61.5165L2.57752 64.0748L2.00267 60.9908C1.88423 60.3555 1.91113 59.778 2.08335 59.2585C2.25497 58.7357 2.54096 58.2943 2.94133 57.9341C3.3417 57.574 3.82741 57.3198 4.39844 57.1716C4.96306 57.025 5.49111 57.016 5.98258 57.1447C6.47405 57.2733 6.89223 57.5319 7.23711 57.9206C7.57818 58.3069 7.80762 58.8161 7.92545 59.4482L8.42104 62.107L7.86284 62.2519L7.36998 59.6078C7.27402 59.093 7.08937 58.6797 6.81603 58.3681C6.53948 58.0573 6.20333 57.8508 5.80759 57.7486C5.40864 57.6472 4.97658 57.6569 4.51141 57.7776C4.04303 57.8992 3.64581 58.1048 3.31974 58.3944C2.99367 58.684 2.76229 59.0396 2.6256 59.461C2.48831 59.8793 2.46764 60.3458 2.5636 60.8606L3.02185 63.319L12.3188 60.9055L12.4327 61.5165Z" fill="white"/>
<path d="M11.0595 53.2602L0.879152 53.4354L0.844211 50.2985C0.837049 49.6555 0.956812 49.0999 1.2035 48.6316C1.45019 48.1633 1.79584 47.801 2.24045 47.5447C2.68174 47.2885 3.19732 47.1553 3.7872 47.1452C4.37045 47.1352 4.88549 47.2506 5.33232 47.4915C5.77584 47.7325 6.12445 48.0829 6.37816 48.5426C6.63184 48.999 6.76225 49.5486 6.76942 50.1916L6.8007 53.0004L6.21911 53.0104L6.18799 50.2165C6.18216 49.6929 6.07941 49.2471 5.87976 48.8793C5.6801 48.5115 5.40353 48.2312 5.05004 48.0384C4.69324 47.8456 4.27458 47.7534 3.79407 47.7616C3.31024 47.7699 2.89048 47.8766 2.53479 48.0816C2.17579 48.2867 1.89896 48.5782 1.7043 48.9561C1.5096 49.3307 1.41516 49.7798 1.421 50.3035L1.44885 52.804L11.0525 52.6388L11.0595 53.2602ZM6.39994 49.1587L10.985 46.5739L10.993 47.2897L6.40775 49.8597L6.39994 49.1587Z" fill="white"/>
<path d="M7.51176 36.6565C8.53752 36.884 9.40421 37.2626 10.1118 37.7923C10.8162 38.3214 11.3276 38.9534 11.6459 39.6883C11.9647 40.42 12.0554 41.2029 11.918 42.0368C11.7801 42.874 11.4464 43.5661 10.9169 44.1131C10.3847 44.6561 9.70718 45.0228 8.88426 45.2132C8.05811 45.4029 7.13378 45.3844 6.11126 45.1577C5.08551 44.9303 4.22044 44.552 3.51605 44.023C2.8122 43.4907 2.30086 42.8587 1.98202 42.127C1.65996 41.3945 1.56788 40.6097 1.7058 39.7725C1.84319 38.9386 2.17635 38.2498 2.7053 37.7061C3.23479 37.1591 3.91261 36.7907 4.73876 36.601C5.56168 36.4106 6.48601 36.4291 7.51176 36.6565ZM7.41317 37.255C6.49096 37.0505 5.66586 37.0303 4.93785 37.1943C4.21039 37.355 3.61696 37.6692 3.15756 38.1368C2.69493 38.6037 2.40516 39.192 2.28825 39.9017C2.17134 40.6113 2.25207 41.2818 2.53044 41.913C2.80558 42.5434 3.25704 43.091 3.88484 43.5556C4.50995 44.0162 5.28522 44.3491 6.21066 44.5543C7.1264 44.7574 7.94935 44.7805 8.67951 44.6238C9.40698 44.463 10.002 44.1492 10.4647 43.6823C10.9273 43.2154 11.2176 42.6238 11.3356 41.9076C11.4525 41.198 11.3718 40.5276 11.0934 39.8964C10.8118 39.2644 10.3584 38.7182 9.73333 38.2575C9.10876 37.7936 8.33538 37.4595 7.41317 37.255Z" fill="white"/>
<path d="M5.43138 28.2379L5.63953 27.6524L12.3235 30.8572C12.9332 31.1496 13.3914 31.499 13.6981 31.9056C14.006 32.3091 14.1865 32.741 14.2397 33.2015C14.291 33.6574 14.235 34.1149 14.0719 34.574C13.9053 35.0425 13.6724 35.4224 13.3729 35.7138C13.0715 36.0006 12.7331 36.1801 12.3577 36.2523C11.9822 36.3245 11.5993 36.2651 11.2089 36.0743L11.4154 35.4934C11.7012 35.6341 11.9835 35.6763 12.2624 35.6199C12.5394 35.559 12.7927 35.4173 13.0222 35.1947C13.2487 34.9707 13.4253 34.6807 13.5518 34.3247C13.6739 33.9812 13.7153 33.6336 13.6758 33.2821C13.6364 32.9305 13.4922 32.5982 13.2432 32.2851C12.9953 31.9689 12.6194 31.6881 12.1154 31.4428L5.43138 28.2379Z" fill="white"/>
<path d="M17.5664 29.385L9.47904 23.1992L12.3838 18.3326L12.8419 18.6829L10.2556 23.016L13.6083 25.5803L16.0391 21.5077L16.4972 21.858L14.0663 25.9306L17.4269 28.501L20.0743 24.0655L20.5323 24.4159L17.5664 29.385Z" fill="white"/>
<path d="M15.4604 16.1429L15.0815 15.7081L19.8901 10.438L20.269 10.8728L18.0741 13.2783L24.3845 20.5197L23.9656 20.9788L17.6553 13.7374L15.4604 16.1429Z" fill="white"/>
<path d="M31.5821 8.67373C32.1083 9.58312 32.4197 10.4837 32.5164 11.3754C32.6114 12.2642 32.5033 13.0852 32.192 13.8385C31.8834 14.5898 31.3852 15.2109 30.6973 15.702C30.0067 16.1949 29.2883 16.4422 28.5421 16.4438C27.797 16.4406 27.0801 16.2065 26.3916 15.7413C25.7015 15.2732 25.0941 14.5859 24.5696 13.6794C24.0434 12.77 23.7327 11.8709 23.6377 10.982C23.5454 10.0913 23.6535 9.27024 23.9621 8.51894C24.269 7.76477 24.7678 7.14121 25.4584 6.64825C26.1463 6.15722 26.862 5.91186 27.6054 5.91216C28.3516 5.91055 29.0698 6.14377 29.76 6.61184C30.4485 7.07705 31.0558 7.76434 31.5821 8.67373ZM31.0884 9.02612C30.6153 8.20853 30.0758 7.59238 29.4699 7.17768C28.8667 6.76105 28.2438 6.55096 27.6014 6.54743C26.9573 6.54103 26.3425 6.74676 25.7572 7.16462C25.1718 7.58248 24.7471 8.11668 24.4831 8.76722C24.2175 9.41489 24.1295 10.1324 24.2191 10.9197C24.3098 11.7022 24.5925 12.5036 25.0673 13.3241C25.5371 14.1359 26.073 14.7526 26.6752 15.174C27.2784 15.5906 27.9021 15.8022 28.5462 15.8086C29.1903 15.815 29.8077 15.6073 30.3985 15.1856C30.9839 14.7677 31.4086 14.2335 31.6725 13.583C31.9348 12.9296 32.0207 12.2116 31.93 11.4291C31.842 10.6447 31.5615 9.8437 31.0884 9.02612Z" fill="white"/>
<path d="M37.8913 3.53607C37.6359 2.95876 37.2312 2.5772 36.6774 2.39139C36.1266 2.20427 35.515 2.25581 34.8424 2.546C34.389 2.74165 34.0156 3.00178 33.7221 3.32639C33.4286 3.651 33.2329 4.00544 33.1349 4.38969C33.0369 4.77395 33.0545 5.15873 33.1877 5.54404C33.2732 5.79151 33.3963 5.99579 33.5569 6.15688C33.7194 6.31353 33.913 6.4334 34.1375 6.51649C34.361 6.59646 34.6099 6.64384 34.8843 6.65863C35.1587 6.67343 35.4526 6.66362 35.7659 6.62922L36.8956 6.49814C37.2835 6.45677 37.6499 6.44445 37.9949 6.46118C38.3429 6.4766 38.6611 6.53727 38.9495 6.64321C39.2399 6.74471 39.492 6.90233 39.7057 7.11607C39.9225 7.3285 40.091 7.60858 40.2112 7.95629C40.3866 8.46377 40.4158 8.97314 40.2987 9.4844C40.1847 9.99436 39.9335 10.4663 39.5449 10.9004C39.1584 11.33 38.6486 11.6813 38.0156 11.9544C37.4131 12.2144 36.8518 12.336 36.332 12.3191C35.8151 12.301 35.3629 12.1613 34.9754 11.9001C34.5868 11.6358 34.2913 11.2666 34.0889 10.7923L34.6732 10.5402C34.8412 10.9249 35.0835 11.2163 35.4003 11.4144C35.719 11.6081 36.0865 11.7051 36.5028 11.7055C36.919 11.7058 37.36 11.6056 37.8256 11.4047C38.3277 11.188 38.7402 10.9092 39.063 10.5684C39.3847 10.2244 39.5989 9.84755 39.7057 9.43793C39.8124 9.02831 39.7932 8.61362 39.6481 8.19386C39.5312 7.85554 39.3534 7.59926 39.1148 7.42502C38.8763 7.25078 38.5745 7.14161 38.2096 7.09749C37.8477 7.05207 37.4192 7.05695 36.9242 7.11214L35.7163 7.24457C34.9069 7.33104 34.2407 7.2603 33.7178 7.03236C33.198 6.80311 32.8363 6.39402 32.6327 5.8051C32.4616 5.31016 32.4379 4.81645 32.5614 4.32398C32.6839 3.82837 32.9263 3.37638 33.2887 2.96802C33.6542 2.55834 34.1139 2.23401 34.6677 1.99503C35.2246 1.75473 35.7546 1.65387 36.2575 1.69245C36.7593 1.72789 37.2016 1.88443 37.5843 2.16206C37.9659 2.43656 38.2554 2.81381 38.4528 3.2938L37.8913 3.53607Z" fill="white"/>
<path d="M54.1812 5.18422C53.8406 5.17003 53.553 5.04052 53.3185 4.79571C53.0917 4.54364 52.9839 4.24724 52.995 3.90651C53.0058 3.57335 53.1325 3.29051 53.3751 3.058C53.6252 2.82579 53.9206 2.71679 54.2612 2.73098C54.5942 2.74485 54.8779 2.87798 55.1122 3.13037C55.3465 3.38276 55.4583 3.67553 55.4474 4.00869C55.44 4.23584 55.3765 4.4417 55.2567 4.62626C55.1449 4.80357 54.9924 4.94507 54.7995 5.05076C54.6144 5.14919 54.4083 5.19368 54.1812 5.18422Z" fill="white"/>
<path d="M70.1584 1.69338L70.7573 2.00728L70.5797 12.3672L70.6413 12.3995L77.7674 5.68173L78.3663 5.99563L74.3626 15.3572L73.8342 15.0803L77.2572 7.07628L77.2044 7.04858L70.5184 13.3423L69.9988 13.0699L70.159 3.35566L70.1062 3.32796L66.6831 11.332L66.1547 11.055L70.1584 1.69338Z" fill="white"/>
<path d="M75.2637 15.8625L80.9473 7.41464L85.2851 11.0623L84.9632 11.5408L81.101 8.29309L78.7449 11.7951L82.375 14.8476L82.053 15.3261L78.423 12.2736L76.0613 15.7839L80.0148 19.1084L79.6929 19.5869L75.2637 15.8625Z" fill="white"/>
<path d="M92.4556 18.5995L92.8414 19.0867L88.0368 23.8157C87.5431 24.3016 87.0028 24.6092 86.4158 24.7384C85.8312 24.8653 85.2508 24.8171 84.6746 24.5936C84.1027 24.3704 83.5895 23.9717 83.1348 23.3974C82.6821 22.8258 82.3909 22.2085 82.2611 21.5456C82.1337 20.8804 82.1629 20.2298 82.3486 19.5939C82.5365 18.9605 82.8771 18.4033 83.3704 17.9223L88.175 13.1933L88.5608 13.6806L83.781 18.3851C83.3629 18.7967 83.0732 19.2668 82.9118 19.7955C82.7525 20.3268 82.7244 20.87 82.8276 21.425C82.9332 21.9776 83.1773 22.4956 83.56 22.9789C83.9427 23.4622 84.3734 23.7966 84.8522 23.9819C85.3333 24.1648 85.8191 24.1999 86.3097 24.0869C86.8023 23.9765 87.2577 23.7156 87.6758 23.304L92.4556 18.5995Z" fill="white"/>
<path d="M96.3646 27.6614C96.8709 27.2682 97.1835 26.7576 97.3023 26.1295C97.4226 25.5044 97.3179 24.8648 96.9883 24.2107C96.7661 23.7697 96.4921 23.4273 96.1664 23.1835C95.8408 22.9398 95.4968 22.8062 95.1347 22.7829C94.7725 22.7596 94.4207 22.8593 94.0793 23.082C93.86 23.225 93.6839 23.3989 93.5509 23.6036C93.4223 23.8094 93.3303 24.0405 93.275 24.2968C93.2225 24.5513 93.2023 24.826 93.2144 25.1209C93.2266 25.4158 93.2631 25.7262 93.3241 26.0522L93.5504 27.226C93.6247 27.6297 93.6704 28.0168 93.6873 28.3872C93.7058 28.7606 93.6799 29.1118 93.6096 29.4408C93.5436 29.7709 93.4224 30.0722 93.2461 30.3445C93.0713 30.6197 92.8298 30.8579 92.5217 31.0589C92.072 31.3522 91.6068 31.4905 91.1262 31.4736C90.6471 31.4597 90.19 31.2919 89.7549 30.97C89.324 30.6493 88.9535 30.1812 88.6433 29.5655C88.348 28.9795 88.1837 28.4082 88.1505 27.8518C88.1188 27.2983 88.2047 26.7881 88.4083 26.321C88.6146 25.8521 88.9261 25.4601 89.3428 25.1451L89.6291 25.7134C89.2915 25.973 89.0465 26.292 88.8942 26.6706C88.7462 27.0503 88.6915 27.4615 88.7302 27.9043C88.7689 28.3471 88.9023 28.7949 89.1305 29.2477C89.3766 29.7361 89.6713 30.1161 90.0147 30.3876C90.3608 30.6574 90.727 30.8059 91.1133 30.8331C91.4996 30.8604 91.8787 30.7527 92.2507 30.5101C92.5505 30.3145 92.7692 30.0715 92.9069 29.7811C93.0446 29.4907 93.1166 29.1469 93.123 28.7495C93.1308 28.355 93.0861 27.9004 92.989 27.3857L92.7542 26.129C92.5989 25.2864 92.6015 24.5631 92.7618 23.959C92.9237 23.3579 93.2656 22.8872 93.7875 22.5467C94.2261 22.2606 94.6774 22.1314 95.1413 22.1592C95.608 22.1851 96.0459 22.3478 96.455 22.6472C96.8656 22.9497 97.2066 23.3702 97.478 23.9089C97.751 24.4506 97.8933 24.9929 97.905 25.5358C97.9194 26.077 97.8171 26.5803 97.5979 27.0457C97.3816 27.5093 97.0622 27.8966 96.6397 28.2075L96.3646 27.6614Z" fill="white"/>
<path d="M93.5524 42.6445L103.637 41.2378L103.936 44.3605C103.998 45.0039 103.92 45.5732 103.701 46.0684C103.483 46.5669 103.157 46.9717 102.725 47.2828C102.292 47.5939 101.784 47.7902 101.199 47.8717C100.622 47.9523 100.093 47.9007 99.6128 47.7169C99.1327 47.5331 98.7376 47.2288 98.4274 46.804C98.1208 46.382 97.9368 45.851 97.8753 45.211L97.617 42.5188L98.1882 42.4391L98.4451 45.1165C98.4951 45.6377 98.6429 46.0685 98.8884 46.4087C99.1373 46.7484 99.455 46.9917 99.8417 47.1383C100.232 47.2845 100.665 47.3244 101.141 47.258C101.62 47.1912 102.035 47.0329 102.387 46.7832C102.739 46.5335 103.002 46.2076 103.177 45.8055C103.351 45.4067 103.414 44.9466 103.364 44.4253L103.125 41.9361L93.6117 43.2631L93.5524 42.6445Z" fill="white"/>
<path d="M94.0992 50.9851L104.224 52.0637L103.998 55.1926C103.951 55.8339 103.786 56.3726 103.502 56.8087C103.218 57.2449 102.845 57.5632 102.382 57.7637C101.923 57.9646 101.4 58.0338 100.813 57.9713C100.233 57.9095 99.731 57.7311 99.3073 57.4362C98.8868 57.1415 98.5698 56.7496 98.356 56.2605C98.142 55.7747 98.0582 55.2111 98.1045 54.5698L98.3069 51.7681L98.8853 51.8297L98.684 54.6165C98.6463 55.1388 98.7113 55.5955 98.879 55.9864C99.0467 56.3774 99.298 56.6906 99.633 56.9262C99.9714 57.1621 100.379 57.3055 100.857 57.3564C101.339 57.4077 101.764 57.3531 102.135 57.1927C102.508 57.0326 102.807 56.7763 103.032 56.4239C103.256 56.0747 103.388 55.6389 103.425 55.1166L103.605 52.6224L94.0544 51.6049L94.0992 50.9851ZM98.3856 55.644L93.6174 57.6545L93.669 56.9404L98.4361 54.9449L98.3856 55.644Z" fill="white"/>
<path d="M96.0404 67.9361C95.0463 67.596 94.2236 67.1225 93.5723 66.5155C92.9242 65.9095 92.4767 65.222 92.2297 64.4529C91.9819 63.6869 91.9647 62.8951 92.1779 62.0772C92.3919 61.2562 92.7863 60.6016 93.361 60.1135C93.9379 59.6297 94.6425 59.338 95.4745 59.2383C96.3097 59.1398 97.2228 59.26 98.2138 59.5989C99.2079 59.939 100.029 60.412 100.677 61.0179C101.324 61.6271 101.772 62.3146 102.02 63.0805C102.271 63.8475 102.289 64.6416 102.075 65.4626C101.862 66.2804 101.468 66.9318 100.895 67.4167C100.32 67.9048 99.6149 68.1981 98.7797 68.2967C97.9476 68.3963 97.0345 68.2761 96.0404 67.9361ZM96.1934 67.3491C97.0872 67.6549 97.9019 67.7659 98.6376 67.6822C99.3724 67.6017 99.9889 67.3532 100.487 66.9366C100.988 66.5212 101.329 65.9655 101.511 65.2695C101.692 64.5735 101.674 63.895 101.457 63.2339C101.243 62.5739 100.847 61.9773 100.269 61.4442C99.6929 60.9153 98.9565 60.4975 98.0596 60.1907C97.1721 59.8871 96.3597 59.7734 95.6226 59.8496C94.8877 59.9301 94.2698 60.1781 93.7687 60.5936C93.2675 61.009 92.9254 61.5679 92.7423 62.2703C92.5609 62.9663 92.5787 63.6448 92.7958 64.3059C93.0159 64.9681 93.414 65.5636 93.99 66.0925C94.5652 66.6245 95.2996 67.0434 96.1934 67.3491Z" fill="white"/>
<path d="M97.228 76.5167L96.9648 77.0796L90.6558 73.1881C90.0803 72.8331 89.6605 72.4368 89.3963 71.9992C89.1307 71.5646 88.9939 71.1147 88.9861 70.6495C88.9797 70.1891 89.0797 69.7383 89.2861 69.2969C89.4967 68.8466 89.7645 68.4915 90.0896 68.2316C90.416 67.9765 90.7687 67.8324 91.1477 67.7993C91.5267 67.7661 91.9002 67.865 92.2684 68.0959L92.0072 68.6544C91.7378 68.4843 91.4622 68.413 91.1805 68.4403C90.9001 68.4724 90.6354 68.5877 90.3864 68.7861C90.1401 68.9862 89.937 69.2574 89.7769 69.5997C89.6225 69.9299 89.5477 70.2726 89.5525 70.6275C89.5573 70.9825 89.6678 71.3292 89.8839 71.6676C90.0987 72.0089 90.4437 72.3281 90.919 72.6252L97.228 76.5167Z" fill="white"/>
<path d="M85.28 74.1121L92.6996 81.0849L89.3241 85.6377L88.9039 85.2428L91.9092 81.1891L88.8334 78.2986L86.0087 82.1086L85.5885 81.7136L88.4132 77.9036L85.3301 75.0063L82.2537 79.1557L81.8335 78.7608L85.28 74.1121Z" fill="white"/>
<path d="M86.0597 87.4955L86.3942 87.9653L81.0672 92.7108L80.7327 92.241L83.1642 90.0749L77.593 82.2506L78.057 81.8372L83.6282 89.6616L86.0597 87.4955Z" fill="white"/>
<path d="M69.2413 93.2813C68.8046 92.3257 68.5818 91.4011 68.5729 90.5074C68.5653 89.6168 68.7541 88.8144 69.1394 88.1003C69.5218 87.3877 70.0811 86.8238 70.8171 86.4084C71.5561 85.9914 72.2986 85.8207 73.0448 85.8963C73.7895 85.9766 74.4832 86.2829 75.1258 86.8152C75.7698 87.3504 76.3095 88.0944 76.7448 89.047C77.1815 90.0026 77.4036 90.9257 77.4112 91.8163C77.4159 92.7086 77.227 93.511 76.8446 94.2235C76.4636 94.9391 75.9036 95.5053 75.1647 95.9223C74.4286 96.3377 73.6889 96.5068 72.9456 96.4295C72.1994 96.3538 71.5043 96.0484 70.8603 95.5131C70.2177 94.9809 69.678 94.2369 69.2413 93.2813ZM69.7696 92.9832C70.1622 93.8424 70.641 94.5088 71.206 94.9824C71.7681 95.4577 72.3701 95.7304 73.0121 95.8004C73.6555 95.8734 74.2903 95.7332 74.9167 95.3797C75.5431 95.0262 76.0202 94.5408 76.3481 93.9235C76.6774 93.3092 76.8359 92.6074 76.8237 91.8179C76.81 91.0331 76.6062 90.2097 76.2122 89.3475C75.8224 88.4944 75.3471 87.8278 74.7865 87.3479C74.2244 86.8726 73.6217 86.5985 72.9783 86.5254C72.335 86.4524 71.6972 86.5943 71.0651 86.951C70.4387 87.3045 69.9616 87.7899 69.6337 88.4072C69.3072 89.0275 69.1508 89.7301 69.1644 90.5149C69.1753 91.3013 69.377 92.1241 69.7696 92.9832Z" fill="white"/>
<path d="M62.4747 97.7446C62.6757 98.344 63.0446 98.7656 63.5811 99.0096C64.1145 99.2545 64.7314 99.2697 65.4317 99.0551C65.9039 98.9104 66.3021 98.6932 66.6264 98.4035C66.9507 98.1138 67.18 97.784 67.3144 97.414C67.4488 97.0441 67.4675 96.6611 67.3707 96.2651C67.3085 96.0108 67.2046 95.7951 67.0592 95.6182C66.9113 95.4455 66.729 95.3058 66.5122 95.1992C66.2961 95.0959 66.0515 95.022 65.7784 94.9776C65.5053 94.9333 65.2103 94.9112 64.8936 94.9113L63.7508 94.9189C63.3589 94.9179 62.9911 94.8904 62.6474 94.8365C62.3007 94.7835 61.988 94.689 61.7095 94.5529C61.4285 94.4209 61.1912 94.2375 60.9975 94.0027C60.8007 93.7689 60.6586 93.4733 60.5712 93.1159C60.4436 92.5943 60.4625 92.0867 60.628 91.5931C60.7902 91.1004 61.0862 90.6601 61.516 90.2724C61.9433 89.8888 62.4866 89.596 63.1457 89.394C63.7732 89.2017 64.3462 89.1421 64.8648 89.2151C65.3802 89.289 65.8195 89.4763 66.1825 89.7769C66.5464 90.0807 66.8071 90.4783 66.9648 90.9699L66.3564 91.1563C66.2247 90.7572 66.0097 90.4424 65.7115 90.2119C65.4109 89.9856 65.0524 89.8497 64.6359 89.8043C64.2194 89.7589 63.7688 89.8105 63.2839 89.959C62.761 90.1193 62.322 90.3507 61.9668 90.6533C61.6124 90.9592 61.3624 91.3092 61.217 91.7033C61.0715 92.0974 61.0515 92.5102 61.157 92.9416C61.242 93.2893 61.3957 93.5623 61.6179 93.7607C61.8402 93.9591 62.1318 94.0999 62.4928 94.1831C62.8506 94.2672 63.2797 94.3088 63.7802 94.3077L65.0013 94.3073C65.8193 94.3093 66.4792 94.4514 66.9809 94.7338C67.4793 95.0171 67.8026 95.4614 67.9506 96.0666C68.075 96.5753 68.0521 97.0668 67.882 97.5412C67.7127 98.0188 67.4274 98.4401 67.0262 98.8053C66.6218 99.1715 66.1312 99.4429 65.5545 99.6197C64.9745 99.7974 64.4348 99.8399 63.9352 99.7472C63.4365 99.6578 63.0087 99.4549 62.652 99.1385C62.2961 98.8254 62.0421 98.4204 61.89 97.9237L62.4747 97.7446Z" fill="white"/>
</svg>
